<svg xmlns="http://www.w3.org/2000/svg" xmlns:xlink="http://www.w3.org/1999/xlink" viewBox="0 0 120 120"><defs><style>.a{clip-path:url(#b);}.b{fill:#fff;}.c,.f{fill:#080607;}.d{fill:#002984;}.e,.f{stroke:none;}</style><clipPath id="b"><rect width="120" height="120"/></clipPath></defs><g id="a" class="a"><g class="b" transform="translate(1 1)"><path class="e" d="M 59 117.5 C 51.10232162475586 117.5 43.44116973876953 115.9533386230469 36.22930908203125 112.9029846191406 C 32.7630615234375 111.4368743896484 29.41981506347656 109.6222152709961 26.29244613647461 107.5094146728516 C 23.19466209411621 105.4166030883789 20.2816162109375 103.0131225585938 17.63424682617188 100.3657531738281 C 14.98687648773193 97.7183837890625 12.58339977264404 94.80533599853516 10.49058437347412 91.70755004882812 C 8.377784729003906 88.58018493652344 6.563123226165771 85.2369384765625 5.097015380859375 81.77069091796875 C 2.046661615371704 74.55883026123047 0.5 66.89767456054688 0.5 59 C 0.5 51.10232162475586 2.046661615371704 43.44116973876953 5.097015380859375 36.22930908203125 C 6.563123226165771 32.7630615234375 8.377784729003906 29.41981506347656 10.49058437347412 26.29244613647461 C 12.58339977264404 23.19466209411621 14.98687648773193 20.2816162109375 17.63424682617188 17.63424682617188 C 20.2816162109375 14.98687648773193 23.19466209411621 12.58339977264404 26.29244613647461 10.49058437347412 C 29.41981506347656 8.377784729003906 32.7630615234375 6.563123226165771 36.22930908203125 5.097015380859375 C 43.44116973876953 2.046661615371704 51.10232162475586 0.5 59 0.5 C 66.89767456054688 0.5 74.55883026123047 2.046661615371704 81.77069091796875 5.097015380859375 C 85.2369384765625 6.563123226165771 88.58018493652344 8.377784729003906 91.70755004882812 10.49058437347412 C 94.80533599853516 12.58339977264404 97.7183837890625 14.98687648773193 100.3657531738281 17.63424682617188 C 103.0131225585938 20.2816162109375 105.4166030883789 23.19466209411621 107.5094146728516 26.29244613647461 C 109.6222152709961 29.41981506347656 111.4368743896484 32.7630615234375 112.9029846191406 36.22930908203125 C 115.9533386230469 43.44116973876953 117.5 51.10232162475586 117.5 59 C 117.5 66.89767456054688 115.9533386230469 74.55883026123047 112.9029846191406 81.77069091796875 C 111.4368743896484 85.2369384765625 109.6222152709961 88.58018493652344 107.5094146728516 91.70755004882812 C 105.4166030883789 94.80533599853516 103.0131225585938 97.7183837890625 100.3657531738281 100.3657531738281 C 97.7183837890625 103.0131225585938 94.80533599853516 105.4166030883789 91.70755004882812 107.5094146728516 C 88.58018493652344 109.6222152709961 85.2369384765625 111.4368743896484 81.77069091796875 112.9029846191406 C 74.55883026123047 115.9533386230469 66.89767456054688 117.5 59 117.5 Z"/><path class="f" d="M 59 117 C 66.83038330078125 117 74.42603302001953 115.4666290283203 81.57590484619141 112.4424743652344 C 85.01242828369141 110.9889526367188 88.32704925537109 109.189826965332 91.42765808105469 107.0951080322266 C 94.49907684326172 105.0200958251953 97.38732147216797 102.6370620727539 100.0121994018555 100.0121994018555 C 102.6370620727539 97.38732147216797 105.0200958251953 94.49907684326172 107.0951080322266 91.42765808105469 C 109.189826965332 88.32704925537109 110.9889526367188 85.01242828369141 112.4424743652344 81.57590484619141 C 115.4666290283203 74.42603302001953 117 66.83038330078125 117 59 C 117 51.16961669921875 115.4666290283203 43.57397079467773 112.4424743652344 36.42409133911133 C 110.9889526367188 32.98756790161133 109.189826965332 29.67295455932617 107.0951080322266 26.57233810424805 C 105.0200958251953 23.50092315673828 102.6370620727539 20.6126766204834 100.0121994018555 17.98780059814453 C 97.38732147216797 15.36293888092041 94.49907684326172 12.97990798950195 91.42765808105469 10.90489196777344 C 88.32704925537109 8.810169219970703 85.01242828369141 7.011045932769775 81.57590484619141 5.557523250579834 C 74.42603302001953 2.533369302749634 66.83038330078125 1 59 1 C 51.16961669921875 1 43.57397079467773 2.533369302749634 36.42409133911133 5.557523250579834 C 32.98756790161133 7.011045932769775 29.67295455932617 8.810169219970703 26.57233810424805 10.90489196777344 C 23.50092315673828 12.97990798950195 20.6126766204834 15.36293888092041 17.98780059814453 17.98780059814453 C 15.36293888092041 20.6126766204834 12.97990798950195 23.50092315673828 10.90489196777344 26.57233810424805 C 8.810169219970703 29.67295455932617 7.011045932769775 32.98756790161133 5.557523250579834 36.42409133911133 C 2.533369302749634 43.57397079467773 1 51.16961669921875 1 59 C 1 66.83038330078125 2.533369302749634 74.42603302001953 5.557523250579834 81.57590484619141 C 7.011045932769775 85.01242828369141 8.810169219970703 88.32704925537109 10.90489196777344 91.42765808105469 C 12.97990798950195 94.49907684326172 15.36293888092041 97.38732147216797 17.98780059814453 100.0121994018555 C 20.6126766204834 102.6370620727539 23.50092315673828 105.0200958251953 26.57233810424805 107.0951080322266 C 29.67295455932617 109.189826965332 32.98756790161133 110.9889526367188 36.42409133911133 112.4424743652344 C 43.57397079467773 115.4666290283203 51.16961669921875 117 59 117 M 59 118 C 26.41519927978516 118 0 91.58480072021484 0 59 C 0 26.41519927978516 26.41519927978516 0 59 0 C 91.58480072021484 0 118 26.41519927978516 118 59 C 118 91.58480072021484 91.58480072021484 118 59 118 Z"/></g><path class="c" d="M25.564-.924v-31.2h.88V0H25.036L4.972-31.2H4.884V0H4V-32.12H5.412L25.476-.924Z" transform="translate(6 77)"/><path class="c" d="M25.564-.924v-31.2h.88V0H25.036L4.972-31.2H4.884V0H4V-32.12H5.412L25.476-.924ZM35.332-17.16V-.88h16.72V0h-17.6V-32.12h17.6v.88H35.332v13.2h15.84v.88Z" transform="translate(58 76)"/><path class="d" d="M23.892-32.12,8.492,1.76H1.012l15.4-33.88Z" transform="translate(35 76)"/></g></svg>